<svg width="25" height="24" viewBox="0 0 25 24" fill="none" xmlns="http://www.w3.org/2000/svg">
<g clip-path="url(#clip0_38_2868)">
<path d="M18.3134 0H7.30663C3.72436 0 0.810059 2.9143 0.810059 6.49657V17.5036C0.810059 21.0857 3.72436 24 7.30663 24H18.3136C21.8957 24 24.81 21.0857 24.81 17.5036V6.49657C24.81 2.9143 21.8957 0 18.3134 0V0ZM12.81 18.5623C9.19151 18.5623 6.24773 15.6185 6.24773 12C6.24773 8.38146 9.19151 5.43767 12.81 5.43767C16.4286 5.43767 19.3723 8.38146 19.3723 12C19.3723 15.6185 16.4286 18.5623 12.81 18.5623ZM19.5293 6.98528C18.4599 6.98528 17.5902 6.11553 17.5902 5.04619C17.5902 3.97686 18.4599 3.10693 19.5293 3.10693C20.5986 3.10693 21.4685 3.97686 21.4685 5.04619C21.4685 6.11553 20.5986 6.98528 19.5293 6.98528Z" fill="#464646"/>
<path d="M12.8101 6.84473C9.96759 6.84473 7.65479 9.15735 7.65479 12.0001C7.65479 14.8426 9.96759 17.1554 12.8101 17.1554C15.6528 17.1554 17.9654 14.8426 17.9654 12.0001C17.9654 9.15735 15.6528 6.84473 12.8101 6.84473Z" fill="#464646"/>
<path d="M19.5292 4.51416C19.2358 4.51416 18.9971 4.75293 18.9971 5.04626C18.9971 5.3396 19.2358 5.57837 19.5292 5.57837C19.8227 5.57837 20.0615 5.33978 20.0615 5.04626C20.0615 4.75275 19.8227 4.51416 19.5292 4.51416Z" fill="#464646"/>
</g>
<defs>
<clipPath id="clip0_38_2868">
<rect width="24" height="24" fill="white" transform="translate(0.810059)"/>
</clipPath>
</defs>
</svg>
