<svg width="37" height="24" viewBox="0 0 37 24" fill="none" xmlns="http://www.w3.org/2000/svg">
<path d="M35.116 2.06023C33.8274 0.596903 31.4484 0 26.9049 0H10.4122C5.76473 0 3.34538 0.635406 2.06165 2.19334C0.810059 3.71233 0.810059 5.95044 0.810059 9.04805V14.9521C0.810059 20.9531 2.29507 24 10.4122 24H26.905C30.8451 24 33.0284 23.4733 34.4409 22.1819C35.8894 20.8576 36.5074 18.6954 36.5074 14.9521V9.04805C36.5074 5.78136 36.4106 3.53005 35.116 2.06023ZM23.7279 12.8152L16.2386 16.5544C16.0711 16.638 15.888 16.6795 15.7052 16.6795C15.4981 16.6795 15.2915 16.6263 15.1086 16.5204C14.764 16.321 14.5536 15.9642 14.5536 15.5794V8.12486C14.5536 7.74071 14.7635 7.38428 15.1073 7.18473C15.4513 6.98518 15.8791 6.97153 16.2359 7.14865L23.7252 10.8638C24.1063 11.0528 24.3455 11.4286 24.3461 11.8386C24.3466 12.2489 24.1083 12.6253 23.7279 12.8152Z" fill="#464646"/>
</svg>
