<svg width="316" height="316" viewBox="0 0 316 316" fill="none" xmlns="http://www.w3.org/2000/svg">
<g opacity="0.1" clip-path="url(#clip0_38_2899)">
<path d="M138 236.166V258.963M138 123.083V144.3M138 314.489C217 314.489 273.428 286.5 273.428 224.203C273.428 156.489 239.571 111.346 171.857 77.4886L198.491 43.18C199.844 40.929 200.578 38.3602 200.619 35.7341C200.659 33.108 200.004 30.5179 198.721 28.2264C197.438 25.9348 195.572 24.0232 193.311 22.6854C191.051 21.3476 188.478 20.6311 185.851 20.6086H90.1484C87.5221 20.6311 84.9485 21.3476 82.6883 22.6854C80.4282 24.0232 78.5619 25.9348 77.2786 28.2264C75.9953 30.5179 75.3407 33.108 75.381 35.7341C75.4214 38.3602 76.1553 40.929 77.5084 43.18L104.143 77.7143C36.4284 111.797 2.57129 156.94 2.57129 224.654C2.57129 286.5 58.9999 314.489 138 314.489Z" stroke="#AF00CB" stroke-width="16" stroke-linecap="round" stroke-linejoin="round"/>
<path d="M115.428 225.783C118.182 229.052 121.649 231.647 125.561 233.368C129.474 235.09 133.729 235.892 138 235.714C144.527 236.159 150.974 234.056 155.983 229.847C160.992 225.637 164.174 219.65 164.86 213.143C164.174 206.636 160.992 200.648 155.983 196.439C150.974 192.23 144.527 190.126 138 190.571C131.472 191.016 125.026 188.913 120.017 184.704C115.008 180.494 111.826 174.507 111.14 168C111.77 161.47 114.937 155.448 119.959 151.228C124.982 147.008 131.459 144.925 138 145.429C142.195 145.172 146.396 145.848 150.299 147.41C154.202 148.971 157.71 151.378 160.571 154.457" stroke="#AF00CB" stroke-width="16" stroke-linecap="round" stroke-linejoin="round"/>
</g>
<defs>
<clipPath id="clip0_38_2899">
<rect width="316" height="316" fill="white"/>
</clipPath>
</defs>
</svg>
