<svg width="230" height="230" viewBox="0 0 230 230" fill="none" xmlns="http://www.w3.org/2000/svg">
<g opacity="0.1" clip-path="url(#clip0_38_2895)">
<mask id="path-1-inside-1_38_2895" fill="white">
<path fill-rule="evenodd" clip-rule="evenodd" d="M107.757 27.0913C102.081 25.1319 98.1905 23.789 94.3928 23.5329C90.4586 23.2787 86.5149 23.8548 82.8178 25.2238C79.1207 26.5929 75.7529 28.7242 72.9331 31.4794C70.2188 34.1272 68.1421 37.6851 65.1068 42.871L53.1351 63.3083C51.0286 66.8882 49.7325 70.8865 49.3384 75.0215C48.9442 79.1565 49.4615 83.3277 50.8537 87.2412L44.1391 106.693C39.6431 119.718 36.0815 130.036 34.3796 138.482C32.6324 147.174 32.6637 154.711 36.1323 161.849C39.6032 168.979 45.5162 173.653 53.4421 177.642C61.1393 181.512 71.4572 185.074 84.4751 189.567L92.3623 192.29C105.387 196.786 115.705 200.348 124.151 202.049C132.843 203.797 140.38 203.765 147.517 200.297C154.65 196.819 159.324 190.906 163.311 182.987C167.184 175.283 170.743 164.972 175.239 151.947L181.951 132.502C185.461 130.279 188.441 127.313 190.681 123.814C192.92 120.314 194.366 116.366 194.914 112.248L198.098 88.7775C198.916 82.826 199.469 78.7422 198.973 74.9863C198.453 71.0773 197.116 67.3214 195.049 63.9628C192.982 60.6042 190.232 57.718 186.977 55.4916C183.838 53.3529 179.947 52.01 174.264 50.0482L107.757 27.0913ZM157.301 135.398C160.906 136.649 164.725 137.164 168.533 136.911L164.746 147.881C160.081 161.395 156.752 170.992 153.26 177.939C149.845 184.731 146.626 188.22 142.594 190.183C138.562 192.146 133.83 192.527 126.364 191.02C122.591 190.22 118.861 189.234 115.186 188.066L121.928 168.536C123.004 165.418 123.933 162.725 124.493 160.459C125.088 158.047 125.418 155.576 124.907 152.965C124.346 150.058 123.03 147.35 121.091 145.112C119.348 143.107 117.199 141.842 114.934 140.822C112.806 139.866 110.113 138.936 106.995 137.86L106.534 137.701C103.416 136.624 100.731 135.697 98.4581 135.135C96.0462 134.54 93.5817 134.213 90.9732 134.716C88.0645 135.279 85.3554 136.598 83.1183 138.54C81.113 140.283 79.8479 142.431 78.8305 144.689C77.8689 146.832 76.9418 149.518 75.868 152.629L69.124 172.166C65.5059 170.818 61.9568 169.291 58.4897 167.591C51.698 164.176 48.2092 160.957 46.2464 156.925C44.2764 152.89 43.9023 148.161 45.4064 140.702C46.9336 133.084 50.241 123.48 54.9058 109.966L58.6924 98.996C63.5294 103.343 69.706 105.908 76.1996 106.266C82.6932 106.624 89.1143 104.753 94.3997 100.964C95.7566 105.38 98.1384 109.412 101.351 112.731C104.563 116.051 108.515 118.564 112.884 120.065C117.248 121.579 121.909 122.038 126.485 121.407C131.061 120.776 135.423 119.072 139.215 116.433C140.495 120.809 142.806 124.815 145.953 128.114C149.099 131.414 152.991 133.911 157.301 135.398ZM79.695 176.005C82.4397 176.969 85.3876 177.986 88.5482 179.077L95.6346 181.523C98.7952 182.614 101.736 183.629 104.498 184.567L111.22 165.093C112.396 161.685 113.15 159.478 113.576 157.762C113.985 156.118 113.937 155.451 113.867 155.102C113.68 154.135 113.241 153.235 112.596 152.49C112.364 152.22 111.866 151.778 110.323 151.079C107.952 150.094 105.542 149.204 103.099 148.411C99.6904 147.235 97.4865 146.474 95.7674 146.055C94.1169 145.644 93.4573 145.694 93.1081 145.763C92.1388 145.949 91.2355 146.387 90.489 147.032C90.2282 147.26 89.7772 147.762 89.085 149.308C88.3614 150.922 87.5935 153.123 86.417 156.532L79.695 176.005ZM113.747 41.055L104.875 37.9925C98.1142 35.6589 95.7514 34.8988 93.6737 34.7606C91.3137 34.6077 88.948 34.9528 86.73 35.7735C84.512 36.5941 82.4914 37.872 80.7993 39.5242C79.3044 40.983 78.0136 43.0911 74.3989 49.2667L62.8472 68.9924C61.6431 71.0166 60.8644 73.2652 60.559 75.6006C60.2536 77.936 60.4278 80.3092 61.071 82.575C61.7141 84.8408 62.8127 86.9516 64.2995 88.7783C65.7864 90.605 67.6302 92.1091 69.7183 93.1988C71.8064 94.2885 74.0948 94.9408 76.4436 95.1158C78.7924 95.2909 81.1522 94.9849 83.3787 94.2167C85.6052 93.4485 87.6516 92.2342 89.3927 90.648C91.1339 89.0618 92.5331 87.1372 93.505 84.9917L95.672 80.2992L95.8031 80.0113L113.761 41.0599L113.747 41.055ZM105.903 84.9409L124.44 44.7462L150.249 53.6551L140.097 96.4827C139.512 98.9316 138.422 101.231 136.898 103.236C135.374 105.24 133.449 106.904 131.245 108.123C129.042 109.342 126.609 110.088 124.101 110.314C121.593 110.54 119.066 110.241 116.68 109.436C114.294 108.63 112.103 107.337 110.245 105.637C108.387 103.938 106.904 101.87 105.89 99.565C104.876 97.2603 104.353 94.7695 104.355 92.2516C104.357 89.7336 104.884 87.2438 105.903 84.9409ZM180.625 64.7746C178.904 63.6017 176.575 62.7424 169.815 60.4088L160.929 57.3414L149.781 104.409C149.231 106.693 149.152 109.065 149.549 111.381C149.945 113.697 150.809 115.907 152.087 117.878C153.366 119.849 155.032 121.539 156.984 122.846C158.937 124.152 161.135 125.048 163.444 125.477C165.754 125.907 168.127 125.862 170.419 125.345C172.71 124.829 174.873 123.851 176.774 122.471C178.676 121.092 180.277 119.34 181.48 117.322C182.683 115.304 183.462 113.062 183.771 110.733L186.854 88.0843C187.811 80.9915 188.096 78.536 187.826 76.4681C187.513 74.1229 186.71 71.8699 185.469 69.8553C184.229 67.8407 182.578 66.1096 180.625 64.7746Z"/>
</mask>
<path fill-rule="evenodd" clip-rule="evenodd" d="M107.757 27.0913C102.081 25.1319 98.1905 23.789 94.3928 23.5329C90.4586 23.2787 86.5149 23.8548 82.8178 25.2238C79.1207 26.5929 75.7529 28.7242 72.9331 31.4794C70.2188 34.1272 68.1421 37.6851 65.1068 42.871L53.1351 63.3083C51.0286 66.8882 49.7325 70.8865 49.3384 75.0215C48.9442 79.1565 49.4615 83.3277 50.8537 87.2412L44.1391 106.693C39.6431 119.718 36.0815 130.036 34.3796 138.482C32.6324 147.174 32.6637 154.711 36.1323 161.849C39.6032 168.979 45.5162 173.653 53.4421 177.642C61.1393 181.512 71.4572 185.074 84.4751 189.567L92.3623 192.29C105.387 196.786 115.705 200.348 124.151 202.049C132.843 203.797 140.38 203.765 147.517 200.297C154.65 196.819 159.324 190.906 163.311 182.987C167.184 175.283 170.743 164.972 175.239 151.947L181.951 132.502C185.461 130.279 188.441 127.313 190.681 123.814C192.92 120.314 194.366 116.366 194.914 112.248L198.098 88.7775C198.916 82.826 199.469 78.7422 198.973 74.9863C198.453 71.0773 197.116 67.3214 195.049 63.9628C192.982 60.6042 190.232 57.718 186.977 55.4916C183.838 53.3529 179.947 52.01 174.264 50.0482L107.757 27.0913ZM157.301 135.398C160.906 136.649 164.725 137.164 168.533 136.911L164.746 147.881C160.081 161.395 156.752 170.992 153.26 177.939C149.845 184.731 146.626 188.22 142.594 190.183C138.562 192.146 133.83 192.527 126.364 191.02C122.591 190.22 118.861 189.234 115.186 188.066L121.928 168.536C123.004 165.418 123.933 162.725 124.493 160.459C125.088 158.047 125.418 155.576 124.907 152.965C124.346 150.058 123.03 147.35 121.091 145.112C119.348 143.107 117.199 141.842 114.934 140.822C112.806 139.866 110.113 138.936 106.995 137.86L106.534 137.701C103.416 136.624 100.731 135.697 98.4581 135.135C96.0462 134.54 93.5817 134.213 90.9732 134.716C88.0645 135.279 85.3554 136.598 83.1183 138.54C81.113 140.283 79.8479 142.431 78.8305 144.689C77.8689 146.832 76.9418 149.518 75.868 152.629L69.124 172.166C65.5059 170.818 61.9568 169.291 58.4897 167.591C51.698 164.176 48.2092 160.957 46.2464 156.925C44.2764 152.89 43.9023 148.161 45.4064 140.702C46.9336 133.084 50.241 123.48 54.9058 109.966L58.6924 98.996C63.5294 103.343 69.706 105.908 76.1996 106.266C82.6932 106.624 89.1143 104.753 94.3997 100.964C95.7566 105.38 98.1384 109.412 101.351 112.731C104.563 116.051 108.515 118.564 112.884 120.065C117.248 121.579 121.909 122.038 126.485 121.407C131.061 120.776 135.423 119.072 139.215 116.433C140.495 120.809 142.806 124.815 145.953 128.114C149.099 131.414 152.991 133.911 157.301 135.398ZM79.695 176.005C82.4397 176.969 85.3876 177.986 88.5482 179.077L95.6346 181.523C98.7952 182.614 101.736 183.629 104.498 184.567L111.22 165.093C112.396 161.685 113.15 159.478 113.576 157.762C113.985 156.118 113.937 155.451 113.867 155.102C113.68 154.135 113.241 153.235 112.596 152.49C112.364 152.22 111.866 151.778 110.323 151.079C107.952 150.094 105.542 149.204 103.099 148.411C99.6904 147.235 97.4865 146.474 95.7674 146.055C94.1169 145.644 93.4573 145.694 93.1081 145.763C92.1388 145.949 91.2355 146.387 90.489 147.032C90.2282 147.26 89.7772 147.762 89.085 149.308C88.3614 150.922 87.5935 153.123 86.417 156.532L79.695 176.005ZM113.747 41.055L104.875 37.9925C98.1142 35.6589 95.7514 34.8988 93.6737 34.7606C91.3137 34.6077 88.948 34.9528 86.73 35.7735C84.512 36.5941 82.4914 37.872 80.7993 39.5242C79.3044 40.983 78.0136 43.0911 74.3989 49.2667L62.8472 68.9924C61.6431 71.0166 60.8644 73.2652 60.559 75.6006C60.2536 77.936 60.4278 80.3092 61.071 82.575C61.7141 84.8408 62.8127 86.9516 64.2995 88.7783C65.7864 90.605 67.6302 92.1091 69.7183 93.1988C71.8064 94.2885 74.0948 94.9408 76.4436 95.1158C78.7924 95.2909 81.1522 94.9849 83.3787 94.2167C85.6052 93.4485 87.6516 92.2342 89.3927 90.648C91.1339 89.0618 92.5331 87.1372 93.505 84.9917L95.672 80.2992L95.8031 80.0113L113.761 41.0599L113.747 41.055ZM105.903 84.9409L124.44 44.7462L150.249 53.6551L140.097 96.4827C139.512 98.9316 138.422 101.231 136.898 103.236C135.374 105.24 133.449 106.904 131.245 108.123C129.042 109.342 126.609 110.088 124.101 110.314C121.593 110.54 119.066 110.241 116.68 109.436C114.294 108.63 112.103 107.337 110.245 105.637C108.387 103.938 106.904 101.87 105.89 99.565C104.876 97.2603 104.353 94.7695 104.355 92.2516C104.357 89.7336 104.884 87.2438 105.903 84.9409ZM180.625 64.7746C178.904 63.6017 176.575 62.7424 169.815 60.4088L160.929 57.3414L149.781 104.409C149.231 106.693 149.152 109.065 149.549 111.381C149.945 113.697 150.809 115.907 152.087 117.878C153.366 119.849 155.032 121.539 156.984 122.846C158.937 124.152 161.135 125.048 163.444 125.477C165.754 125.907 168.127 125.862 170.419 125.345C172.71 124.829 174.873 123.851 176.774 122.471C178.676 121.092 180.277 119.34 181.48 117.322C182.683 115.304 183.462 113.062 183.771 110.733L186.854 88.0843C187.811 80.9915 188.096 78.536 187.826 76.4681C187.513 74.1229 186.71 71.8699 185.469 69.8553C184.229 67.8407 182.578 66.1096 180.625 64.7746Z" fill="#AF00CB" stroke="white" stroke-width="2" mask="url(#path-1-inside-1_38_2895)"/>
</g>
<defs>
<clipPath id="clip0_38_2895">
<rect width="179.922" height="179.922" fill="white" transform="translate(59.0342 0.359314) rotate(19.0438)"/>
</clipPath>
</defs>
</svg>
