<svg width="24" height="24" viewBox="0 0 24 24" fill="none" xmlns="http://www.w3.org/2000/svg">
<g clip-path="url(#clip0_38_2877)">
<path d="M0.915535 11.5716L6.2408 13.6356L8.302 20.5193C8.43389 20.9602 8.95304 21.1232 9.29763 20.8306L12.266 18.3176C12.5772 18.0544 13.0204 18.0412 13.3455 18.2864L18.6995 22.3229C19.0681 22.6012 19.5903 22.3914 19.6828 21.9288L23.6048 2.33756C23.7057 1.83228 23.2276 1.41076 22.7643 1.59684L0.909295 10.3521C0.369958 10.5681 0.374658 11.3611 0.915535 11.5716ZM7.96982 12.5368L18.3774 5.88028C18.5644 5.761 18.7568 6.02364 18.5962 6.17836L10.007 14.4696C9.70508 14.7614 9.51033 15.152 9.45517 15.5759L9.16258 17.8276C9.12383 18.1282 8.71715 18.158 8.63727 17.8671L7.51199 13.7611C7.3831 13.2928 7.57092 12.7925 7.96982 12.5368Z" fill="#464646"/>
</g>
<defs>
<clipPath id="clip0_38_2877">
<rect width="23.1111" height="24" fill="white" transform="translate(0.507324)"/>
</clipPath>
</defs>
</svg>
