<svg width="407" height="407" viewBox="0 0 407 407" fill="none" xmlns="http://www.w3.org/2000/svg">
<g opacity="0.1" clip-path="url(#clip0_38_2884)">
<path d="M104.828 197.206L156.995 181.694" stroke="#AF00CB" stroke-width="10" stroke-linecap="round" stroke-linejoin="round"/>
<path d="M302.154 152.726L268.22 162.816C244.94 169.738 231.29 192.861 237.715 214.471C244.141 236.081 268.221 247.985 291.474 241.071L325.422 230.976C326.518 230.651 327.052 230.492 327.501 230.33C334.416 227.805 338.476 220.934 336.99 214.265C336.892 213.839 336.741 213.331 336.442 212.327L321.574 162.324C321.275 161.32 321.124 160.811 320.974 160.402C318.562 154.008 311.419 150.468 304.249 152.131C303.798 152.237 303.25 152.4 302.154 152.726Z" stroke="#AF00CB" stroke-width="16"/>
<path d="M303.876 152.214C295.599 128.102 287.887 114.099 274.203 106.699C254.386 95.9551 229.789 103.269 180.608 117.893L141.483 129.527C92.3022 144.15 67.7054 151.464 56.9784 171.29C46.2345 191.107 53.5483 215.704 68.1721 264.885C82.7959 314.065 90.1097 338.662 109.936 349.389C129.753 360.133 154.35 352.819 203.53 338.195L242.656 326.561C291.836 311.938 316.433 304.624 327.16 284.798C334.577 271.123 333.399 255.177 327.144 230.465" stroke="#AF00CB" stroke-width="16"/>
<path d="M276.724 202.872L276.854 202.833" stroke="#AF00CB" stroke-width="20" stroke-linecap="round" stroke-linejoin="round"/>
</g>
<defs>
<clipPath id="clip0_38_2884">
<rect width="326.547" height="326.547" fill="white" transform="translate(0 93.071) rotate(-16.5598)"/>
</clipPath>
</defs>
</svg>
