<svg width="39" height="20" viewBox="0 0 39 20" fill="none" xmlns="http://www.w3.org/2000/svg">
<path d="M38.6043 18.0622C38.5573 17.9707 38.5135 17.8948 38.4728 17.834C37.7994 16.7387 36.5127 15.3942 34.6133 13.8002L34.5731 13.7637L34.553 13.7458L34.5327 13.7275H34.5123C33.6503 12.9852 33.1044 12.4861 32.8758 12.2306C32.4575 11.7439 32.3638 11.2512 32.5924 10.752C32.7539 10.3749 33.3606 9.57835 34.4111 8.3614C34.9636 7.71645 35.4012 7.19955 35.7244 6.81011C38.055 4.01144 39.0655 2.22306 38.7555 1.44425L38.6351 1.26225C38.5542 1.15269 38.3454 1.05245 38.009 0.961035C37.6719 0.869813 37.2409 0.854728 36.7154 0.915521L30.896 0.95183C30.8018 0.921657 30.6671 0.92447 30.4918 0.961035C30.3166 0.997601 30.229 1.01595 30.229 1.01595L30.1277 1.06165L30.0473 1.11657C29.9799 1.15288 29.9058 1.21674 29.8249 1.30803C29.7444 1.39899 29.6771 1.50575 29.6233 1.6274C28.9898 3.09967 28.2694 4.46851 27.461 5.73386C26.9625 6.48838 26.5047 7.14227 26.0867 7.69593C25.6692 8.2494 25.3189 8.65718 25.0362 8.91858C24.7531 9.18022 24.4976 9.38984 24.2682 9.54818C24.0391 9.70659 23.8642 9.77352 23.7431 9.74904C23.6217 9.72455 23.5074 9.70026 23.3992 9.67597C23.2107 9.5664 23.0591 9.41739 22.9448 9.22881C22.83 9.04023 22.7527 8.80287 22.7123 8.51693C22.6721 8.2308 22.6483 7.98469 22.6415 7.77776C22.6352 7.57109 22.6381 7.27875 22.6518 6.90159C22.6658 6.52424 22.6721 6.26892 22.6721 6.13506C22.6721 5.67262 22.6821 5.17074 22.7021 4.62929C22.7225 4.08784 22.739 3.65883 22.7528 3.34278C22.7665 3.02641 22.7729 2.6917 22.7729 2.33883C22.7729 1.98596 22.7491 1.70922 22.7021 1.50837C22.6557 1.30777 22.5844 1.11305 22.4905 0.924278C22.396 0.735697 22.2577 0.589819 22.0763 0.486259C21.8944 0.382827 21.6684 0.300747 21.3994 0.239761C20.6853 0.0938189 19.7761 0.0148707 18.6712 0.00259691C16.1657 -0.0216949 14.5558 0.124439 13.8418 0.440808C13.5589 0.574476 13.3029 0.757112 13.074 0.98814C12.8315 1.25592 12.7977 1.40206 12.9728 1.4261C13.7812 1.53547 14.3534 1.79712 14.6903 2.21078L14.8116 2.42999C14.9061 2.58814 15.0003 2.86813 15.0947 3.26959C15.1889 3.67104 15.2497 4.11513 15.2764 4.60161C15.3437 5.48998 15.3437 6.25044 15.2764 6.88305C15.209 7.51592 15.1453 8.00859 15.0845 8.36146C15.0237 8.71433 14.9328 9.00027 14.8116 9.21922C14.6903 9.43823 14.6095 9.57209 14.569 9.62067C14.5286 9.66926 14.4949 9.69988 14.4682 9.71189C14.2931 9.7725 14.111 9.80337 13.9225 9.80337C13.7337 9.80337 13.5048 9.7181 13.2355 9.54767C12.9662 9.37724 12.6867 9.14315 12.397 8.845C12.1073 8.54678 11.7806 8.13005 11.4168 7.59474C11.0532 7.05942 10.676 6.42675 10.2853 5.69672L9.96207 5.16729C9.76001 4.82669 9.48398 4.33075 9.13372 3.67993C8.78324 3.02884 8.47346 2.39904 8.20416 1.79066C8.09651 1.53515 7.93479 1.34063 7.71928 1.20677L7.61814 1.15185C7.55091 1.10327 7.44298 1.05168 7.29491 0.996706C7.14664 0.941794 6.99193 0.902415 6.83014 0.878187L1.29348 0.914498C0.727708 0.914498 0.343825 1.03027 0.141691 1.26149L0.0607957 1.37086C0.0203832 1.43178 0 1.52908 0 1.663C0 1.79686 0.0404125 1.96115 0.121308 2.15568C0.929558 3.87145 1.80851 5.52617 2.75817 7.12009C3.70783 8.71402 4.53306 9.99796 5.23338 10.9708C5.93384 11.9443 6.64782 12.8631 7.37532 13.7268C8.10281 14.5907 8.58436 15.1444 8.81997 15.3876C9.05587 15.6313 9.24115 15.8135 9.37584 15.9351L9.8811 16.3731C10.2044 16.6652 10.6792 17.015 11.3056 17.4225C11.9322 17.8303 12.6258 18.2317 13.3869 18.6275C14.1482 19.0226 15.0338 19.3451 16.0443 19.5944C17.0546 19.8441 18.0379 19.9442 18.9944 19.8959H21.3183C21.7896 19.8591 22.1466 19.7253 22.3893 19.4943L22.4697 19.4028C22.5238 19.3302 22.5744 19.2173 22.6211 19.0655C22.6684 18.9134 22.6919 18.7459 22.6919 18.5636C22.6781 18.0405 22.7222 17.5691 22.8229 17.1493C22.9236 16.7297 23.0384 16.4134 23.1668 16.2003C23.2951 15.9874 23.44 15.8078 23.6011 15.6622C23.7626 15.5162 23.8777 15.4278 23.9452 15.3974C24.0123 15.3668 24.0659 15.346 24.1063 15.3335C24.4296 15.2362 24.8101 15.3305 25.2483 15.6167C25.6862 15.9026 26.0969 16.2557 26.4811 16.6753C26.865 17.0953 27.3263 17.5665 27.8651 18.0896C28.4042 18.6129 28.8755 19.0018 29.2795 19.2577L29.6835 19.4767C29.9533 19.6229 30.3036 19.7567 30.7347 19.8784C31.1651 20 31.5422 20.0304 31.866 19.9696L37.0387 19.8967C37.5504 19.8967 37.9485 19.8202 38.2309 19.6684C38.5138 19.5163 38.6819 19.3488 38.7361 19.1665C38.7902 18.9841 38.7931 18.7771 38.7464 18.5457C38.6985 18.3148 38.6513 18.1534 38.6043 18.0622Z" fill="#464646"/>
</svg>
