<svg width="24" height="24" viewBox="0 0 24 24" fill="none" xmlns="http://www.w3.org/2000/svg">
<path d="M21.3841 5.27179C18.9699 5.27179 17.0058 3.22229 17.0058 0.703125C17.0058 0.314758 16.7041 0 16.3319 0H12.7231C12.3511 0 12.0493 0.314758 12.0493 0.703125V16.1422C12.0493 17.6232 10.8945 18.828 9.4752 18.828C8.05595 18.828 6.90132 17.6232 6.90132 16.1422C6.90132 14.6611 8.05595 13.4562 9.4752 13.4562C9.84739 13.4562 10.149 13.1415 10.149 12.7531V8.98737C10.149 8.59918 9.84739 8.28424 9.4752 8.28424C5.32291 8.28424 1.94482 11.8094 1.94482 16.1422C1.94482 20.475 5.32291 24 9.4752 24C13.6275 24 17.0058 20.475 17.0058 16.1422V9.30817C18.3467 10.0543 19.8392 10.4438 21.3841 10.4438C21.7562 10.4438 22.0579 10.129 22.0579 9.74066V5.97491C22.0579 5.58673 21.7562 5.27179 21.3841 5.27179Z" fill="#464646"/>
</svg>
