<svg width="16" height="17" viewBox="0 0 16 17" fill="none" xmlns="http://www.w3.org/2000/svg">
<path d="M1 3.96191H2V13.9619H1V3.96191ZM3 2.96191H4V14.9619H3V2.96191ZM7 11.9619H13V12.9619H7V11.9619ZM7 8.96191H13V9.96191H7V8.96191Z" fill="white"/>
<path d="M14.85 5.61191L11.35 2.11191C11.25 2.01191 11.15 1.96191 11 1.96191H6C5.45 1.96191 5 2.41191 5 2.96191V14.9619C5 15.5119 5.45 15.9619 6 15.9619H14C14.55 15.9619 15 15.5119 15 14.9619V5.96191C15 5.81191 14.95 5.71191 14.85 5.61191ZM11 3.16191L13.8 5.96191H11V3.16191ZM14 14.9619H6V2.96191H10V5.96191C10 6.51191 10.45 6.96191 11 6.96191H14V14.9619Z" fill="white"/>
</svg>
