<svg width="18" height="19" viewBox="0 0 18 19" fill="none" xmlns="http://www.w3.org/2000/svg">
<g clip-path="url(#clip0_42_3806)">
<path d="M9 1.52441C4.34025 1.52441 0.5625 5.30216 0.5625 9.96191C0.5625 14.6217 4.34025 18.3994 9 18.3994C13.6597 18.3994 17.4375 14.6217 17.4375 9.96191C17.4375 5.30216 13.6597 1.52441 9 1.52441ZM8.12334 5.81348C9.3555 5.81348 10.4608 6.36332 11.2126 7.23351C10.666 6.84901 10.0139 6.64282 9.34566 6.64316C7.53328 6.64316 6.06403 8.12901 6.06403 9.96191C6.06403 11.7948 7.53328 13.2807 9.34566 13.2807C10.0392 13.2807 10.6824 13.0627 11.2126 12.6909C10.4605 13.5605 9.35522 14.1104 8.12334 14.1104C5.85787 14.1104 4.02188 12.2533 4.02188 9.96191C4.02188 7.67085 5.85787 5.81348 8.12334 5.81348ZM13.9781 11.1584L12.4979 10.6977L11.585 11.898L11.5883 10.4167L10.1064 9.96191L11.5886 9.50713L11.5853 8.02607L12.4982 9.22616L13.9784 8.76548L13.0601 9.96191L13.9781 11.1584Z" fill="white"/>
</g>
<defs>
<clipPath id="clip0_42_3806">
<rect y="0.961914" width="18" height="18" rx="2" fill="white"/>
</clipPath>
</defs>
</svg>
