<svg width="18" height="19" viewBox="0 0 18 19" fill="none" xmlns="http://www.w3.org/2000/svg">
<g clip-path="url(#clip0_42_3813)">
<path d="M9.60468 6.69828C8.37646 6.47187 7.09818 6.96941 6.34696 7.967C5.59293 8.96797 5.47199 10.3509 6.04152 11.4674C6.60346 12.5697 7.76305 13.2807 8.99999 13.2807C11.1923 13.2807 12.8129 11.0962 12.1761 8.99694C11.8204 7.82356 10.8107 6.91991 9.60468 6.69828ZM10.7795 7.84606C10.442 8.03855 10.1262 8.26674 9.83755 8.52669C9.76627 8.44375 9.69341 8.36217 9.61902 8.282C9.8985 8.04442 10.1995 7.83341 10.5182 7.65172C10.609 7.71162 10.6962 7.77631 10.7795 7.84606ZM8.82112 8.70078C8.74434 8.78769 8.67037 8.87741 8.59837 8.96938C8.51934 8.87853 8.44059 8.78741 8.35593 8.70247C8.42652 8.61866 8.49965 8.53766 8.57418 8.45778C8.65855 8.53653 8.74124 8.61697 8.82112 8.70078ZM8.75924 8.26681C8.83743 8.18975 8.91787 8.11437 8.99999 8.04153C9.08212 8.11437 9.16255 8.19003 9.24074 8.26737C9.15833 8.34472 9.07818 8.42403 9.00027 8.50559C8.92209 8.42403 8.84193 8.34416 8.75924 8.26681ZM9.00027 8.89709C9.07902 8.9885 9.1544 9.08187 9.22809 9.1775C9.1499 9.27706 9.07199 9.37662 9.00027 9.48153C8.92799 9.37732 8.852 9.27572 8.77246 9.17694C8.84559 9.08216 8.92124 8.98794 9.00027 8.89709ZM9.17943 8.70078C9.25902 8.61697 9.34143 8.53653 9.42609 8.45778C9.5009 8.53766 9.57346 8.61922 9.64434 8.70247C9.55968 8.78769 9.48121 8.87909 9.40218 8.96938C9.33018 8.87741 9.25593 8.78769 9.17943 8.70078ZM9.92137 7.35669C10.0364 7.39775 10.1483 7.44472 10.2555 7.49984C9.96645 7.67482 9.69225 7.8732 9.43565 8.093C9.3586 8.01641 9.27973 7.94167 9.19912 7.86884C9.42847 7.6826 9.66973 7.51152 9.92137 7.35669ZM8.99999 7.19637C9.20221 7.19637 9.39937 7.21972 9.58893 7.26078C9.38587 7.39691 9.1873 7.54006 8.99999 7.69672C8.81142 7.54097 8.61464 7.39545 8.41049 7.26078C8.60412 7.21826 8.80175 7.19667 8.99999 7.19637ZM8.07862 7.35669C8.33029 7.51122 8.57147 7.68222 8.80059 7.86856C8.72043 7.94141 8.6414 8.01594 8.56405 8.09216C8.30739 7.87247 8.03309 7.67427 7.74393 7.49956C7.85165 7.44472 7.9633 7.39775 8.07862 7.35669ZM7.4818 7.65116C7.80039 7.83331 8.10148 8.04448 8.38124 8.282C8.30643 8.36216 8.23387 8.44344 8.16299 8.52669C7.87425 8.26667 7.55837 8.03848 7.2208 7.84606C7.30349 7.77603 7.39096 7.71106 7.4818 7.65116ZM6.23446 9.96191C6.2338 9.24067 6.51604 8.54794 7.02055 8.03253C7.37222 8.22586 7.70013 8.45957 7.99762 8.72891C7.36162 9.53577 6.91402 10.4746 6.68755 11.4767C6.39153 11.027 6.23398 10.5003 6.23446 9.96191ZM6.89455 11.7526C7.09328 10.7143 7.53723 9.73843 8.18943 8.90637C8.2769 8.99441 8.35874 9.0875 8.43946 9.18144C7.81123 10.0579 7.42663 11.0852 7.32487 12.1588C7.16737 12.0391 7.02311 11.9029 6.89455 11.7526ZM7.57096 12.3267C7.64572 11.2734 8.00468 10.2601 8.60962 9.39462C8.69315 9.50319 8.77302 9.61456 8.84784 9.72959C8.34383 10.5593 8.07709 11.5114 8.07665 12.4822C8.07665 12.5109 8.07918 12.539 8.07974 12.5671C7.9024 12.5045 7.73193 12.4239 7.57096 12.3267ZM9.65755 12.6453C9.44662 12.6973 9.22696 12.7277 8.99999 12.7277C8.77302 12.7277 8.55393 12.6973 8.34299 12.6453C8.34074 12.5916 8.33737 12.5373 8.33737 12.4822C8.33737 11.5726 8.58009 10.7202 8.99999 9.98019C9.43426 10.7425 9.66262 11.6048 9.66262 12.4822C9.6629 12.5367 9.65924 12.591 9.65755 12.6453ZM9.92109 12.5671C9.92137 12.5384 9.92418 12.5109 9.92418 12.4822C9.92418 11.4747 9.63871 10.5348 9.15271 9.72959C9.22752 9.61456 9.3074 9.50319 9.39065 9.39462C9.97902 10.2384 10.3525 11.2413 10.4293 12.3261C10.2685 12.4235 10.0983 12.5043 9.92109 12.5671ZM10.676 12.1582C10.574 11.0849 10.1894 10.0578 9.56137 9.18144C9.64152 9.0875 9.72393 8.99441 9.81084 8.90637C10.4628 9.73852 10.9067 10.7143 11.1054 11.7526C10.977 11.9026 10.8331 12.0386 10.676 12.1582ZM11.3127 11.4764C11.0858 10.4745 10.6382 9.53576 10.0026 8.72862C10.3001 8.45925 10.628 8.22554 10.9797 8.03225C11.4843 8.54762 11.7667 9.24035 11.7661 9.96163C11.7663 10.5 11.6087 11.0267 11.3127 11.4764Z" fill="white"/>
<path d="M9 1.52441C4.34025 1.52441 0.5625 5.30216 0.5625 9.96191C0.5625 14.6217 4.34025 18.3994 9 18.3994C13.6597 18.3994 17.4375 14.6217 17.4375 9.96191C17.4375 5.30216 13.6597 1.52441 9 1.52441ZM13.9039 10.5978C13.8378 10.5416 13.9731 10.6442 13.9039 10.5978C14.0119 10.6701 14.1148 10.7629 14.1747 10.8805C13.7152 10.3751 12.8745 10.7233 12.3519 10.9047C12.8967 10.9454 13.7649 11.0563 13.9677 11.6787C13.5931 11.1069 12.7102 11.3223 12.166 11.4165C12.6962 11.5538 13.5335 11.7824 13.6381 12.4344C13.3566 11.8114 12.4509 11.8857 11.8991 11.8941C12.4023 12.1093 13.1932 12.4712 13.194 13.1294C13.0134 12.4695 12.105 12.4032 11.5613 12.3236C12.0215 12.622 12.7493 13.0911 12.6467 13.7464C12.571 13.0675 11.6828 12.8554 11.1575 12.6951C11.5726 13.0495 12.2124 13.6471 12.0097 14.2707C12.0426 13.5889 11.2008 13.2424 10.7061 13C11.0545 13.4219 11.5971 14.1002 11.2984 14.6886C11.437 14.0189 10.6594 13.5453 10.2077 13.2281C10.4932 13.6935 10.9159 14.4597 10.5306 14.9904C10.7722 14.3503 10.078 13.7616 9.68119 13.3771C9.89184 13.8825 10.1872 14.7027 9.72506 15.1681C10.0645 14.5741 9.47025 13.8831 9.13838 13.4418C9.26691 13.9714 9.43172 14.8326 8.90184 15.2174C9.32963 14.6835 8.85122 13.9084 8.59247 13.4204C8.63606 13.9652 8.66475 14.8394 8.08087 15.1372C8.58797 14.6782 8.23528 13.8367 8.05641 13.3144C8.01394 13.8575 7.90678 14.7288 7.28297 14.9302C7.85475 14.5556 7.63875 13.6705 7.54397 13.1265C7.41741 13.657 7.17356 14.4985 6.52697 14.6006C7.15022 14.3207 7.07597 13.4098 7.06669 12.8594C6.85997 13.3648 6.48619 14.1556 5.83172 14.1565C6.49153 13.9787 6.56072 13.0624 6.63778 12.521C6.35428 12.9862 5.86097 13.7129 5.21466 13.6094C5.89416 13.5355 6.10594 12.6445 6.26625 12.1202C5.91188 12.5362 5.3145 13.1744 4.69069 12.9724C5.37328 13.0076 5.72034 12.1604 5.96222 11.6663C5.54766 12.0229 4.85719 12.557 4.27275 12.2614C4.94353 12.3981 5.41547 11.623 5.73328 11.1699C5.26697 11.4556 4.50281 11.8786 3.97125 11.4933C4.61053 11.736 5.20059 11.0402 5.5845 10.6439C5.07909 10.8518 4.25813 11.1522 3.79378 10.6875C4.38666 11.0273 5.08022 10.4333 5.51981 10.1011C4.98994 10.233 4.12903 10.3931 3.74428 9.8646C4.27837 10.2929 5.05209 9.81313 5.54091 9.55551C4.99556 9.59713 4.12313 9.62891 3.82416 9.04391C4.28456 9.55016 5.12325 9.19804 5.64694 9.01973C5.10159 8.97501 4.23534 8.87066 4.03116 8.24573C4.40663 8.81723 5.29116 8.60291 5.83594 8.50673C5.30438 8.37904 4.46484 8.13773 4.36106 7.49001C4.64175 8.11354 5.55103 8.03844 6.10228 8.02973C5.59744 7.8216 4.80544 7.45007 4.80487 6.79476C4.98487 7.45373 5.89669 7.52432 6.44034 7.60026C5.97291 7.31676 5.25094 6.82401 5.35191 6.17741C5.42531 6.85663 6.31687 7.06898 6.84113 7.22901C6.42516 6.8766 5.78672 6.27585 5.98922 5.65401C5.95631 6.33576 6.79978 6.68479 7.29534 6.92498C6.93787 6.51238 6.40462 5.81854 6.70022 5.23579C6.56156 5.90516 7.33978 6.37963 7.79147 6.69632C7.50516 6.23113 7.08272 5.46445 7.46775 4.93429C7.22587 5.57498 7.92084 6.16223 8.31713 6.54726C8.10759 6.04129 7.81059 5.22201 8.27325 4.75654C7.93406 5.35082 8.52806 6.04157 8.85966 6.48285C8.73225 5.95298 8.56575 5.09179 9.09647 4.70732C8.66869 5.24001 9.14738 6.01626 9.40556 6.50338C9.36197 5.95888 9.33384 5.08476 9.91772 4.78663C9.41063 5.24563 9.76275 6.08713 9.94162 6.60969C9.98409 6.06407 10.0924 5.19838 10.7159 4.99391C10.1441 5.36826 10.3587 6.2542 10.4543 6.79813C10.5801 6.26488 10.825 5.42901 11.4716 5.32354C10.8487 5.60676 10.9218 6.5121 10.9311 7.06504C11.1383 6.55879 11.5118 5.76932 12.1666 5.76763C11.5068 5.94904 11.4382 6.85832 11.3602 7.4031C11.646 6.93595 12.1359 6.21426 12.7842 6.31466C12.1047 6.38919 11.8927 7.27907 11.7318 7.80388C12.0893 7.38679 12.6816 6.75257 13.3079 6.9517C12.6248 6.92076 12.2811 7.75916 12.0369 8.25501C12.463 7.90907 13.1338 7.36316 13.7256 7.66298C13.0582 7.52235 12.5817 8.30141 12.2662 8.75198C12.7358 8.47157 13.4938 8.04435 14.0273 8.43051C13.3878 8.18751 12.7974 8.88416 12.4135 9.2796C12.9189 9.07204 13.7408 8.77195 14.2048 9.23601C13.6122 8.89654 12.9212 9.4897 12.4808 9.82045C13.014 9.70035 13.8659 9.52654 14.2543 10.0592C13.7213 9.63257 12.9476 10.1076 12.4597 10.3672C12.9054 10.3391 13.5332 10.28 13.9039 10.5978Z" fill="white"/>
</g>
<defs>
<clipPath id="clip0_42_3813">
<rect width="18" height="18" fill="white" transform="translate(0 0.961914)"/>
</clipPath>
</defs>
</svg>
