<svg width="18" height="19" viewBox="0 0 18 19" fill="none" xmlns="http://www.w3.org/2000/svg">
<g clip-path="url(#clip0_42_3839)">
<path d="M9 1.52441C4.34025 1.52441 0.5625 5.30216 0.5625 9.96191C0.5625 14.6217 4.34025 18.3994 9 18.3994C13.6597 18.3994 17.4375 14.6217 17.4375 9.96191C17.4375 5.30216 13.6597 1.52441 9 1.52441ZM9.89409 3.60088L10.2949 4.08857L10.9052 3.85541L10.5393 4.38613L10.9358 4.86988L10.2974 4.7256L9.91997 5.25998L9.90478 4.63026L9.27647 4.47529L9.89634 4.23735L9.89409 3.60088ZM8.45606 10.5151L6.23419 8.95841L4.01203 10.5151L4.851 7.98276L2.63869 6.36669H5.40422L6.23391 3.87763L7.08862 6.36669H9.82941L7.61709 7.98276L8.45606 10.5151ZM10.9049 11.6432L10.2912 11.4146L9.89409 11.898L9.89634 11.2613L9.27647 11.0228L9.90478 10.8684L9.92053 10.2387L10.2974 10.7728L10.9358 10.6288L10.5356 11.1164L10.9049 11.6432ZM11.4193 9.32995L11.284 9.96191L11.0154 9.35891L10.3826 9.40813L10.8557 8.98485L10.6017 8.38241L11.1516 8.72076L11.6378 8.30254L11.502 8.94041L12.0426 9.27426L11.4193 9.32995ZM11.4055 6.85607L11.203 7.47285L11.0129 6.84482L10.3826 6.82316L10.8948 6.4522L10.7142 5.81376L11.2244 6.21735L11.7292 5.85341L11.5357 6.46373L12.0417 6.86451L11.4055 6.85607Z" fill="white"/>
</g>
<defs>
<clipPath id="clip0_42_3839">
<rect width="18" height="18" fill="white" transform="translate(0 0.961914)"/>
</clipPath>
</defs>
</svg>
