<svg width="18" height="19" viewBox="0 0 18 19" fill="none" xmlns="http://www.w3.org/2000/svg">
<g clip-path="url(#clip0_42_3823)">
<path d="M1.82568 9.93494V10.0981H1.986V9.82637H1.82568V9.93494ZM2.46693 10.3703H2.62725V10.642H2.78784V10.9142H2.94787V10.3703H2.78784V10.0981H2.62725V9.82637H2.78784V9.55412H2.94787V9.01019H2.78784V9.28187H2.62725V9.55412H2.46693V9.28187H2.30634V9.01019H2.14631V9.55412H2.30634V9.82637H2.46693V10.0981H2.30634V10.3703H2.14631V10.9142H2.30634V10.642H2.46693V10.3703ZM2.56284 8.73794H2.62725V8.46625H2.46693V8.73794H2.53106H2.56284ZM4.23065 13.9067H4.39096V14.1784H4.23065V13.9067ZM4.23065 14.7224H4.07006V14.4507H3.90975V14.7224H3.74943V14.9946H3.5894V15.2669H3.74943V15.5386H3.90975V15.8108H4.07006V15.5386H4.23065V15.2669H4.39096V14.9946H4.23065V14.7224ZM3.2685 9.9895V9.82637H3.10818V10.0981H3.2685V9.9895ZM2.53106 11.1865H2.46693V11.4582H2.62725V11.1865H2.56284H2.53106Z" fill="white"/>
<path d="M9 1.52441C4.34025 1.52441 0.5625 5.30216 0.5625 9.96191C0.5625 14.6217 4.34025 18.3994 9 18.3994C13.6597 18.3994 17.4375 14.6217 17.4375 9.96191C17.4375 5.30216 13.6597 1.52441 9 1.52441ZM4.06997 4.38529V4.1136H3.90994V4.38529H3.74962V4.65754H3.58959V4.93007H3.74962V5.20176H3.90994V5.47401H4.06997V5.20176H4.23056V4.93007H4.39088V5.74541H4.23056V6.01766H4.39088V6.56188H4.23056V6.2902H4.06997V6.01766H3.90994V5.74541H3.74962V5.47373H3.58959V5.20148H3.42928V5.47373H3.26869V5.74541H3.10866V6.01766H2.94834V6.2902H2.78775V6.56188H2.62744V6.83413H2.46684V6.5616H2.30625V6.28991H2.14622V6.09079C2.24691 5.91304 2.35294 5.73866 2.46684 5.56963V6.01738H2.62744V5.47345H2.53463C2.61591 5.35673 2.70028 5.24254 2.78775 5.1306V5.2012H2.94778V5.47345H3.10809V5.2012H3.26813V4.92951H3.42872V4.65754H3.26813V4.56979C3.32662 4.50763 3.38484 4.44548 3.44531 4.38529H3.58903V4.24832C3.63656 4.20332 3.68353 4.15776 3.73247 4.1136H3.74934V4.09898C3.90437 3.96015 4.06481 3.82749 4.23028 3.70129V3.84135H4.39059V4.65726H4.23028V4.38501H4.06997V4.38529ZM4.39088 7.92173V8.19398H4.23056V8.46623H4.06997V8.7382H3.90994V9.01045H3.74962V8.7382H3.58959V8.46623H3.42928V8.19398H3.26869V7.92173H3.10866V7.65004H2.94834V7.37779H3.10866V7.10582H3.26869V6.83357H3.74962V7.10582H3.429V7.37779H3.58931V7.65004H3.74934V7.92173H3.90966V7.65004H4.06969V7.37779H4.23028V7.10582H4.39059V7.65004H4.23028V7.92173H4.39088ZM4.39088 12.2744V12.8186H4.23056V12.5466H4.06997V12.2744H3.90994V12.0021H3.74962V12.2744H3.58959V12.5466H3.42928V12.8186H3.74991V13.0908H3.26897V12.8186H3.10894V12.5466H2.94863V12.2744H3.10894V12.0021H3.26897V11.7304H3.42956V11.4582H3.58987V11.1862H3.74991V10.9139H3.91022V11.1862H4.07025V11.4582H4.23084V11.7304H4.39116V12.0021H4.23084V12.2744H4.39088ZM2.30625 11.7304V11.4582H2.14622V11.1862H1.98591V10.9139H1.82559V10.6417H1.665V9.28185H1.82531V9.01016H1.98563V8.73791H2.14594V8.46595H2.30625V8.1937H2.46656V7.92145H2.62716V8.1937H2.78747V8.46595H2.9475V8.73791H3.10781V9.01016H3.26784V9.28185H3.42844V10.6417H3.26784V10.9139H3.10781V11.1862H2.9475V11.4582H2.78775V11.7304H2.62744V12.0021H2.46684V11.7304H2.30625ZM1.98591 12.8183H1.82559V13.0905H1.77497C1.73611 13.0005 1.69897 12.9097 1.66359 12.8183H1.665V12.5463H1.56291C1.54322 12.4895 1.52325 12.4327 1.50469 12.375V12.2744H1.47206C1.33601 11.8304 1.23982 11.3752 1.18462 10.9142H1.34466V11.1865H1.50469V11.4584H1.665V11.7307H1.82531V12.0024H1.98563V12.2746H2.14594V12.5469H1.98563L1.98591 12.8183ZM1.82559 6.83385V7.1061H1.98591V7.37807H2.14622V7.65032H1.98591V7.92201H1.82559V8.19426H1.665V8.46651H1.50469V8.73848H1.34466V9.01073H1.18462C1.24116 8.54385 1.33706 8.08907 1.47178 7.6506H1.50469V7.54935C1.52325 7.49198 1.54294 7.43516 1.56263 7.37863H1.665V7.10666H1.66331C1.69903 7.01526 1.73559 6.92441 1.77469 6.83441H1.82559V6.83385ZM4.23056 10.9142V10.642H4.06997V10.3703H3.90994V10.098H3.74962V9.82607H3.90994V9.5541H4.06997V9.28185H4.23056V9.01016H4.39088V10.9142H4.23056ZM9 17.8369C7.34412 17.8383 5.73044 17.3146 4.39088 16.3412V16.083H4.23056V16.2225C4.06491 16.0963 3.90431 15.9638 3.74962 15.8249V15.8108H3.73331C3.68438 15.7666 3.63713 15.7211 3.58931 15.6758V15.5388H3.44531C3.38484 15.4786 3.32662 15.4162 3.26813 15.3543V15.2671H3.42872V14.9946H3.26813V14.7224H3.10809V14.4507H2.94778V14.7224H2.78775V14.7929C2.70056 14.6813 2.61619 14.5671 2.53519 14.4507H2.62744V13.9067H2.46684V14.3539C2.35337 14.1843 2.24642 14.0105 2.14622 13.8328V13.6342H2.30625V13.3622H2.46656V13.0905H2.62716V13.3622H2.78747V13.6345H2.9475V13.907H3.10781V14.1787H3.26784V14.4509H3.42844V14.7226H3.58875V14.4507H3.74878V14.1784H3.90909V13.9067H4.06913V13.6342H4.22972V13.3622H4.39003V13.2807H16.1384C14.8846 15.9686 12.157 17.8369 9 17.8369Z" fill="white"/>
</g>
<defs>
<clipPath id="clip0_42_3823">
<rect width="18" height="18" fill="white" transform="translate(0 0.961914)"/>
</clipPath>
</defs>
</svg>
