<svg width="24" height="24" viewBox="0 0 24 24" fill="none" xmlns="http://www.w3.org/2000/svg">
<g clip-path="url(#clip0_42_3751)">
<path d="M10.1227 9.07498C9.9111 8.93271 9.61966 8.98983 9.47739 9.20146L9.21796 9.58736C9.0757 9.79899 9.13282 10.0904 9.34444 10.2327C9.55607 10.375 9.84751 10.3178 9.98977 10.1062L10.2492 9.72031C10.3943 9.50453 10.3343 9.21724 10.1227 9.07498ZM9.43007 12.1218C9.57233 11.9102 9.86377 11.853 10.0754 11.9953C10.2912 12.1404 10.3441 12.429 10.2019 12.6406L9.94245 13.0266C9.80019 13.2382 9.50875 13.2953 9.29712 13.153C9.0855 13.0108 9.02838 12.7193 9.17064 12.5077L9.43007 12.1218ZM12.7186 13.7722C12.507 13.63 12.2156 13.6871 12.0733 13.8987L11.8139 14.2846C11.6716 14.4963 11.7287 14.7877 11.9404 14.93C12.152 15.0722 12.4434 15.0151 12.5857 14.8035L12.8451 14.4176C12.9874 14.206 12.9344 13.9173 12.7186 13.7722ZM12.1206 10.9784C12.2629 10.7668 12.5543 10.7096 12.766 10.8519C12.9776 10.9942 13.0375 11.2815 12.8924 11.4972L12.633 11.8831C12.4908 12.0948 12.1993 12.1519 11.9877 12.0096C11.7761 11.8674 11.7189 11.5759 11.8612 11.3643L12.1206 10.9784ZM9.48453 14.8997C9.6268 14.6881 9.91824 14.6309 10.1299 14.7732C10.3415 14.9155 10.3986 15.2069 10.2563 15.4185L9.99691 15.8044C9.85465 16.0161 9.56321 16.0732 9.35158 15.9309C9.13996 15.7887 9.08284 15.4972 9.2251 15.2856L9.48453 14.8997ZM14.768 12.7581C14.9103 12.5465 15.2017 12.4894 15.4134 12.6316C15.625 12.7739 15.6849 13.0612 15.5398 13.277L15.2804 13.6629C15.1381 13.8745 14.8467 13.9316 14.6351 13.7893C14.4235 13.6471 14.3663 13.3556 14.5086 13.144L14.768 12.7581Z" fill="white"/>
<path d="M16.0334 6.87897C16.1074 6.76892 16.1346 6.63398 16.1091 6.50385C16.0836 6.37372 16.0074 6.25905 15.8974 6.18507C15.7873 6.11108 15.6524 6.08385 15.5222 6.10935C15.3921 6.13486 15.2774 6.21101 15.2035 6.32106L14.6456 7.15097L13.2347 6.20253C12.5257 5.72687 11.657 5.55195 10.8192 5.71616C9.98138 5.88036 9.24295 6.37027 8.76597 7.07836L8.48702 7.49332L8.75217 7.67157C7.16873 8.76155 6.13851 10.6633 6.43249 12.8967L6.95421 16.8454C6.99126 17.1216 7.08649 17.3868 7.23361 17.6235C7.38072 17.8601 7.57637 18.0629 7.80764 18.2184C8.03891 18.3738 8.30053 18.4785 8.57522 18.5254C8.84992 18.5723 9.13144 18.5603 9.40118 18.4904L13.2543 17.4827C15.4334 16.9118 16.8056 15.24 17.2172 13.3622L17.4786 13.5379L17.7576 13.123C18.234 12.4143 18.4094 11.5455 18.2452 10.7075C18.081 9.86949 17.5907 9.13104 16.8821 8.65453L15.4755 7.70887L16.0334 6.87897ZM9.65967 8.28164L11.2004 9.31739C11.8579 9.76082 12.6564 9.94497 13.4418 9.83428C13.6356 10.6026 14.1069 11.272 14.7648 11.7136L16.3097 12.7521C16.0902 14.4427 14.9339 16.0085 13.0009 16.5152L9.14989 17.5226C9.0171 17.557 8.87852 17.5628 8.74331 17.5397C8.60809 17.5166 8.47931 17.4651 8.36547 17.3886C8.25163 17.312 8.15532 17.2122 8.08289 17.0957C8.01046 16.9793 7.96356 16.8487 7.94528 16.7128L7.42356 12.7658C7.16355 10.7848 8.17703 9.12309 9.65967 8.28164Z" fill="white"/>
</g>
<defs>
<clipPath id="clip0_42_3751">
<rect width="16" height="16" fill="white" transform="translate(9.82422 0.897522) rotate(33.9111)"/>
</clipPath>
</defs>
</svg>
