<svg width="18" height="19" viewBox="0 0 18 19" fill="none" xmlns="http://www.w3.org/2000/svg">
<path d="M8.35289 10.5863L8.05477 10.8844C7.92539 11.0138 7.85789 11.1825 7.85789 11.3625C7.85789 11.5425 7.93102 11.7169 8.05477 11.8407L8.35289 12.1388C8.37413 12.1605 8.39953 12.1776 8.42756 12.1892C8.45559 12.2008 8.48568 12.2066 8.51602 12.2063H8.75789C8.88164 12.2063 8.98289 12.3075 8.98289 12.4313V13.6632C8.98289 13.7869 9.08414 13.8882 9.20789 13.8882H9.44977C9.4801 13.8885 9.51019 13.8827 9.53823 13.8711C9.56626 13.8595 9.59166 13.8423 9.61289 13.8207L9.84352 13.59C10.0123 13.4213 10.1079 13.1907 10.1079 12.9488V12.2513C10.1079 12.2175 10.1135 12.1838 10.1304 12.15L10.6423 11.1207C10.6591 11.0869 10.6648 11.0532 10.6648 11.0194V10.7382C10.6648 10.6144 10.766 10.5132 10.8898 10.5132H10.9966C11.1204 10.5132 11.2216 10.6144 11.2216 10.7382V10.845C11.2216 10.9688 11.3229 11.07 11.4466 11.07H11.5535C11.6773 11.07 11.7785 10.9688 11.7785 10.845V10.7382C11.7785 10.6144 11.8798 10.5132 12.0035 10.5132H12.1104C12.2341 10.5132 12.3354 10.6144 12.3354 10.7382V10.845C12.3354 10.9688 12.4366 11.07 12.5604 11.07H13.1904C13.2804 11.07 13.3648 11.0138 13.3985 10.9294L13.8935 9.69755C13.9073 9.66343 13.9125 9.62645 13.9087 9.58984C13.9049 9.55323 13.8922 9.51812 13.8716 9.48758C13.8511 9.45705 13.8234 9.43201 13.7909 9.41468C13.7584 9.39735 13.7222 9.38825 13.6854 9.38817C13.5616 9.38817 13.4604 9.28692 13.4604 9.16317V8.4938C13.4604 8.37005 13.5616 8.2688 13.6854 8.2688H13.7923C13.916 8.2688 14.0173 8.37005 14.0173 8.4938V8.55005C14.0173 8.70755 14.141 8.8313 14.2985 8.8313C14.456 8.8313 14.5798 8.70755 14.5798 8.55005V7.4588C14.5798 6.97505 14.186 6.58692 13.7079 6.58692H13.6854C13.5616 6.58692 13.4604 6.68817 13.4604 6.81192V6.9188C13.4604 7.04255 13.3591 7.1438 13.2354 7.1438H12.566C12.4423 7.1438 12.341 7.04255 12.341 6.9188C12.341 6.73317 12.1891 6.5813 12.0035 6.5813H11.7785C11.4691 6.5813 11.216 6.83442 11.216 7.1438V7.16067C11.216 7.22255 11.1879 7.28442 11.1429 7.32942L10.1585 8.21255C10.1191 8.25192 10.0629 8.2688 10.0066 8.2688H9.19664C9.07289 8.2688 8.97164 8.37005 8.97164 8.4938V8.60067C8.97164 8.72442 8.87039 8.82567 8.74664 8.82567H8.63977C8.51602 8.82567 8.41477 8.92692 8.41477 9.05067V9.72005C8.41477 9.8438 8.51602 9.94505 8.63977 9.94505H8.74664C8.87039 9.94505 8.97164 10.0463 8.97164 10.17V10.2769C8.97164 10.4007 8.87039 10.5019 8.74664 10.5019H8.50477L8.48902 10.5087C8.44289 10.5295 8.39339 10.5509 8.35289 10.5863ZM5.88914 14.4563C6.04664 14.4563 6.17039 14.3325 6.17039 14.175V13.9219C6.17039 13.5563 6.37289 13.23 6.69914 13.0669L7.04227 12.8925C7.19414 12.8138 7.29539 12.6563 7.29539 12.4875C7.29539 12.3132 7.19977 12.1557 7.04227 12.0825L6.38414 11.7563C6.24352 11.6832 6.08602 11.6494 5.92852 11.6494H5.68102C5.65807 11.6495 5.63533 11.6451 5.6141 11.6364C5.59286 11.6278 5.57355 11.615 5.55727 11.5988L4.53352 10.575C4.51735 10.5588 4.50456 10.5395 4.49587 10.5182C4.48719 10.497 4.48277 10.4742 4.48289 10.4513V10.1363C4.48289 10.0407 4.56164 9.96192 4.65727 9.96192H4.87102C4.96664 9.96192 5.04539 10.0407 5.04539 10.1363V10.2432C5.04539 10.4007 5.16914 10.5244 5.32664 10.5244C5.48414 10.5244 5.60789 10.4007 5.60789 10.2432V10.1363C5.60789 10.0407 5.68664 9.96192 5.78227 9.96192C6.02977 9.96192 6.27164 9.86067 6.44602 9.6863L6.60914 9.52317C6.67664 9.45567 6.67664 9.34317 6.60914 9.27567L6.22102 8.88755C6.20485 8.87127 6.19206 8.85195 6.18337 8.83072C6.17469 8.80948 6.17028 8.78674 6.17039 8.7638V8.55567C6.17039 8.39817 6.04664 8.27442 5.88914 8.27442C5.73164 8.27442 5.60789 8.39817 5.60789 8.55567C5.60789 8.71317 5.48414 8.83692 5.32664 8.83692C5.16914 8.83692 5.04539 8.71317 5.04539 8.55567V8.4488C5.04539 8.35317 5.12414 8.27442 5.21977 8.27442C5.32102 8.27442 5.39977 8.19005 5.39414 8.09442L5.38289 7.89755C5.37727 7.7963 5.45602 7.71755 5.55727 7.71755H5.99602C6.09164 7.71755 6.17039 7.6388 6.17039 7.54317V7.4363C6.17039 7.2788 6.29414 7.15505 6.45164 7.15505C6.60914 7.15505 6.73289 7.2788 6.73289 7.4363V8.5613C6.73289 8.7188 6.85664 8.84255 7.01414 8.84255C7.17164 8.84255 7.29539 8.7188 7.29539 8.5613V8.35317C7.29539 8.30817 7.31227 8.26317 7.34602 8.22942L7.57664 7.9988C7.75664 7.8188 7.85789 7.57692 7.85789 7.3238C7.85789 6.9188 7.53164 6.59255 7.12664 6.59255H6.22664C5.83289 6.59255 5.45602 6.75567 5.18602 7.04255L4.83727 7.41942C4.66289 7.61067 4.41539 7.71755 4.15664 7.71755H4.10039C4.00477 7.71755 3.92602 7.6388 3.92602 7.54317C3.92602 7.32942 3.75164 7.15505 3.53789 7.15505H3.18914C2.97539 7.15505 2.80102 7.32942 2.80102 7.54317V7.7513C2.80102 8.0888 2.66602 8.41505 2.42977 8.6513L2.29477 8.7863C2.2786 8.80258 2.26581 8.82189 2.25712 8.84313C2.24844 8.86436 2.24403 8.88711 2.24414 8.91005V8.98317C2.24414 9.14067 2.42977 9.2138 2.54227 9.10692L3.25102 8.39817C3.32414 8.32505 3.42539 8.28005 3.53227 8.28005C3.64364 8.28005 3.59977 8.32617 3.53002 8.40099C3.46196 8.47299 3.36914 8.57142 3.36914 8.67942V10.0069C3.36914 10.237 3.69258 10.4586 3.97327 10.6515C4.10546 10.7415 4.22752 10.8259 4.30289 10.9013L5.00602 11.6044C5.03977 11.6382 5.05664 11.6832 5.05664 11.7282V12.3582C5.05664 12.6282 5.16352 12.8925 5.35477 13.0838L5.56852 13.2975C5.60227 13.3313 5.61914 13.3763 5.61914 13.4213V14.1919C5.60789 14.3325 5.73727 14.4563 5.88914 14.4563Z" fill="white"/>
<path d="M12.5267 12.4144C12.4198 12.2794 12.3579 12.1107 12.3579 11.9363V11.8182C12.3579 11.7226 12.4367 11.6438 12.5323 11.6326H12.746C12.8417 11.6326 12.9204 11.7113 12.9204 11.8069C12.9204 11.9701 13.1173 12.0432 13.2242 11.9251L13.4323 11.6944C13.466 11.6607 13.511 11.6382 13.5617 11.6382H14.0454C14.3548 11.6382 14.6079 11.8913 14.6079 12.2007V12.6732C14.6079 12.7857 14.5067 12.8644 14.3998 12.8419L14.276 12.8138C14.2107 12.7993 14.1523 12.7629 14.1104 12.7108C14.0685 12.6587 14.0456 12.5938 14.0454 12.5269C14.0454 12.3526 13.8935 12.2176 13.7192 12.2344L13.6348 12.2457C13.5504 12.2569 13.4829 12.3301 13.4829 12.4201V12.6282C13.4829 12.7069 13.4267 12.7801 13.3479 12.7969C13.0892 12.8588 12.8135 12.7632 12.6448 12.5551L12.5267 12.4144ZM12.9204 14.1807C12.9204 14.3382 13.0442 14.4619 13.2017 14.4619H14.3267C14.4842 14.4619 14.6079 14.3382 14.6079 14.1807V13.6463C14.6079 13.5628 14.5747 13.4827 14.5156 13.4236C14.4566 13.3645 14.3765 13.3313 14.2929 13.3313H13.3873C13.1285 13.3313 12.9204 13.5451 12.9204 13.8038V14.1807Z" fill="white"/>
<path d="M1.4175 4.80941L5.04563 3.77441L8.98875 4.89941L12.9206 3.77441L16.5881 4.80941C16.7569 4.85441 16.875 5.00629 16.875 5.18066V17.4544C16.875 17.7019 16.6388 17.8875 16.3969 17.8257L12.9262 16.7136L8.98875 17.8369L5.04563 16.7063L1.60312 17.8257C1.54656 17.8398 1.48752 17.8409 1.43047 17.8289C1.37341 17.8169 1.31983 17.7921 1.27378 17.7563C1.22773 17.7206 1.1904 17.6748 1.16463 17.6225C1.13885 17.5702 1.1253 17.5127 1.125 17.4544L1.125 5.18066C1.125 5.00629 1.24875 4.85441 1.4175 4.80941ZM8.98875 16.7069L12.9308 15.5875V15.6015L15.5419 16.3969C15.7894 16.4644 16.0312 16.2788 16.0312 16.0257V6.02441C16.0312 5.85004 15.9131 5.69816 15.7444 5.65316L12.9206 4.91066V4.90391L8.98875 6.00979V6.01148L5.04563 4.90616V4.90391L2.22356 5.65316C2.14123 5.67452 2.06828 5.72252 2.01609 5.78967C1.96389 5.85682 1.93538 5.93936 1.935 6.02441L1.935 16.0144C1.935 16.2675 2.178 16.4532 2.42719 16.3857L5.04563 15.5925L8.98875 16.7085V16.7069Z" fill="white"/>
</svg>
