<svg width="16" height="16" viewBox="0 0 16 16" fill="none" xmlns="http://www.w3.org/2000/svg">
<path d="M2.3335 10.6666H7.00016M3.3335 3.81798V6.99998C3.3335 7.55226 3.78121 7.99998 4.3335 7.99998H5.00016C5.55245 7.99998 6.00016 7.55226 6.00016 6.99998V2.33331C6.00016 1.78103 5.53812 1.3074 5.01581 1.48686C3.67487 1.9476 3.3335 3.31725 3.3335 3.81798ZM3.3335 14.6666H6.00016C6.55245 14.6666 7.00016 14.2189 7.00016 13.6666V8.99998C7.00016 8.4477 6.55245 7.99998 6.00016 7.99998H3.3335C2.78121 7.99998 2.3335 8.44769 2.3335 8.99998V13.6666C2.3335 14.2189 2.78121 14.6666 3.3335 14.6666ZM10.6668 14.6666H12.6668C13.2191 14.6666 13.6668 14.2189 13.6668 13.6666V8.99998C13.6668 8.4477 13.2191 7.99998 12.6668 7.99998H10.6668C10.1145 7.99998 9.66683 8.44769 9.66683 8.99998V13.6666C9.66683 14.2189 10.1145 14.6666 10.6668 14.6666Z" stroke="white" stroke-linecap="round" stroke-linejoin="round"/>
</svg>
