<svg width="18" height="18" viewBox="0 0 18 18" fill="none" xmlns="http://www.w3.org/2000/svg">
<path d="M13.875 9.375V13.875M13.875 13.875V14.5C13.875 15.6046 12.9796 16.5 11.875 16.5H6.125C5.02043 16.5 4.125 15.6046 4.125 14.5V13.875M13.875 13.875H14.5C15.6046 13.875 16.5 12.9796 16.5 11.875V7.69912C16.5 7.09848 16.2301 6.52963 15.7648 6.1498L15.3331 5.79743C14.6672 5.25385 13.7186 5.22737 13.0234 5.73295V5.73295C12.2316 6.30887 11.1311 6.18556 10.4863 5.44867L10.4587 5.41707C9.68646 4.53453 8.31354 4.53453 7.54131 5.41707L7.51367 5.44867C6.86888 6.18556 5.76844 6.30887 4.97656 5.73295V5.73295C4.28138 5.22737 3.33278 5.25385 2.6669 5.79743L2.23525 6.1498C1.76995 6.52963 1.5 7.09848 1.5 7.69912V11.875C1.5 12.9796 2.39543 13.875 3.5 13.875H4.125M4.125 13.875V9.375" stroke="white" stroke-linecap="round" stroke-linejoin="round"/>
<path d="M7.125 3.75H9M9 3.75H10.875M9 3.75L7.57847 5.37461C6.89699 6.15344 5.73392 6.28376 4.89697 5.67507L3.42627 4.60547C2.7475 4.11182 2.52511 3.19979 2.90045 2.44909V2.44909C3.19129 1.86743 3.7858 1.5 4.43612 1.5H13.6967C14.3724 1.5 14.9818 1.90628 15.2417 2.53V2.53C15.5397 3.24527 15.3078 4.0716 14.6811 4.52737L13.103 5.67507C12.2661 6.28376 11.103 6.15344 10.4215 5.37461L9 3.75Z" stroke="white" stroke-linecap="round" stroke-linejoin="round"/>
</svg>
