<svg width="16" height="16" viewBox="0 0 16 16" fill="none" xmlns="http://www.w3.org/2000/svg">
<path d="M11.0251 4.82066C11.3991 4.82066 11.7578 4.67207 12.0223 4.40758C12.2868 4.14309 12.4354 3.78437 12.4354 3.41033C12.4354 3.03629 12.2868 2.67756 12.0223 2.41308C11.7578 2.14859 11.3991 2 11.0251 2C10.651 2 10.2923 2.14859 10.0278 2.41308C9.76333 2.67756 9.61475 3.03629 9.61475 3.41033C9.61475 3.78437 9.76333 4.14309 10.0278 4.40758C10.2923 4.67207 10.651 4.82066 11.0251 4.82066Z" stroke="white"/>
<path d="M4.2554 5.31991L6.51277 4.53802L9.61465 6.01859L6.51277 8.33068L9.61465 10.3728L7.64244 13M10.8332 6.69442L11.5897 7.10595L13.2815 5.51623M5.62313 9.48743L4.7854 10.5909L2 12.1535" stroke="white" stroke-linecap="round" stroke-linejoin="round"/>
</svg>
