<svg width="16" height="16" viewBox="0 0 16 16" fill="none" xmlns="http://www.w3.org/2000/svg">
<path d="M4.27188 5.77273H4.77188V5.27273V4.72727C4.77188 4.13656 5.00654 3.57005 5.42424 3.15235C5.84193 2.73466 6.40845 2.5 6.99916 2.5C7.58986 2.5 8.15638 2.73466 8.57408 3.15235C8.99177 3.57005 9.22643 4.13656 9.22643 4.72727V11.0469V12.254L10.08 11.4005L12.66 8.82046L12.8641 8.61634L12.7894 8.3375L12.4171 6.94816L12.4085 6.89666C12.4091 6.89429 12.4099 6.89196 12.4108 6.88969L12.4071 6.88816L12.4108 6.88969C12.4146 6.88045 12.4214 6.87273 12.4301 6.86775L12.3929 6.80293L12.4301 6.86775C12.4388 6.86276 12.4489 6.86078 12.4588 6.86212C12.4688 6.86346 12.478 6.86804 12.485 6.87515L12.4863 6.87646L14.6681 9.05828L14.6687 9.05887C14.6758 9.06592 14.6804 9.07511 14.6817 9.085L15.1772 9.01825L14.6817 9.08501C14.683 9.0949 14.6811 9.10496 14.6761 9.11363L15.1102 9.36175L14.6761 9.11363C14.6712 9.1223 14.6635 9.12909 14.6543 9.13297C14.6463 9.13631 14.6377 9.13731 14.6292 9.13591L14.6247 9.13457L14.6175 9.13263L13.207 8.75518L12.9282 8.68058L12.7241 8.88463L9.37287 12.2359L9.22643 12.3823V12.5895V12.9091C9.22643 13.0658 9.16417 13.2161 9.05335 13.3269C8.94254 13.4377 8.79224 13.5 8.63552 13.5H5.36279C5.20607 13.5 5.05577 13.4377 4.94496 13.3269C4.83414 13.2161 4.77188 13.0658 4.77188 12.9091V12.4029V12.1958L4.62544 12.0494L2.15163 9.57555C2.15158 9.5755 2.15152 9.57544 2.15147 9.57539C1.73429 9.15724 1.5 8.59068 1.5 8C1.5 7.40925 1.73435 6.84263 2.15162 6.42446C2.35815 6.21751 2.60353 6.05339 2.87367 5.94155L2.6824 5.47958L2.87367 5.94155C3.1438 5.8297 3.43338 5.77233 3.72575 5.77273H3.72643H4.27188ZM4.77188 5.86364H4.27188H3.72665C3.72658 5.86364 3.7265 5.86364 3.72643 5.86364C3.30383 5.86349 2.89069 5.98868 2.53925 6.22337L2.81692 6.63918L2.53925 6.22337C2.18775 6.4581 1.91377 6.79183 1.752 7.18232C1.59022 7.57281 1.54791 8.00251 1.63043 8.41705C1.71294 8.83159 1.91656 9.21234 2.21553 9.51112L3.91844 11.2129L4.77188 12.0658V10.8593V6.36364V5.86364ZM8.63552 5.77273H9.13552V5.27273V4.72727C9.13552 4.16067 8.91044 3.61728 8.50979 3.21664C8.10915 2.81599 7.56575 2.59091 6.99916 2.59091C6.43256 2.59091 5.88916 2.81599 5.48852 3.21664C5.08787 3.61728 4.86279 4.16067 4.86279 4.72727V5.27273V5.77273H5.36279H8.63552Z" stroke="white"/>
</svg>
