<svg width="16" height="16" viewBox="0 0 16 16" fill="none" xmlns="http://www.w3.org/2000/svg">
<path d="M2 1.33337H4V3.33337H2V1.33337ZM4 4.66671H6V6.66671H4V4.66671ZM5.33333 1.33337H7.33333V3.33337H5.33333V1.33337ZM11.3333 7.33337L8 4.00004H10V1.33337H12.6667V4.00004H14.6667L11.3333 7.33337ZM5 14.6667C4.48 14.6667 4.02667 14.3667 3.80667 13.9334L2.06667 8.96004L2 8.66671C2 8.4899 2.07024 8.32033 2.19526 8.1953C2.32029 8.07028 2.48986 8.00004 2.66667 8.00004H13.3333C13.5101 8.00004 13.6797 8.07028 13.8047 8.1953C13.9298 8.32033 14 8.4899 14 8.66671L13.9733 8.86004L12.1933 13.9334C11.9733 14.3667 11.52 14.6667 11 14.6667H5ZM5.07333 13.3334H10.9267L12.38 9.33337H3.61333L5.07333 13.3334Z" fill="white"/>
</svg>
