<svg width="18" height="19" viewBox="0 0 18 19" fill="none" xmlns="http://www.w3.org/2000/svg">
<g clip-path="url(#clip0_127_168)">
<path d="M6 7.71191H12M6 10.7119H9.375M7.5 15.2119L6.75 14.4619H4.5C3.90326 14.4619 3.33097 14.2249 2.90901 13.8029C2.48705 13.3809 2.25 12.8087 2.25 12.2119V6.21191C2.25 5.61518 2.48705 5.04288 2.90901 4.62092C3.33097 4.19897 3.90326 3.96191 4.5 3.96191H13.5C14.0967 3.96191 14.669 4.19897 15.091 4.62092C15.5129 5.04288 15.75 5.61518 15.75 6.21191V9.58691M13.35 16.5747L11.721 17.4282C11.6727 17.4533 11.6183 17.4646 11.5639 17.4606C11.5096 17.4566 11.4574 17.4377 11.4132 17.4058C11.369 17.3739 11.3346 17.3303 11.3137 17.28C11.2928 17.2296 11.2863 17.1745 11.295 17.1207L11.6063 15.3124L10.2885 14.0322C10.2492 13.9941 10.2213 13.9458 10.2081 13.8927C10.1949 13.8396 10.197 13.7839 10.2139 13.7319C10.2309 13.6799 10.2621 13.6337 10.3041 13.5986C10.3461 13.5635 10.3971 13.5409 10.4513 13.5334L12.2723 13.2694L13.0867 11.6247C13.1111 11.5757 13.1487 11.5345 13.1952 11.5056C13.2417 11.4768 13.2953 11.4616 13.35 11.4616C13.4047 11.4616 13.4583 11.4768 13.5048 11.5056C13.5513 11.5345 13.5889 11.5757 13.6132 11.6247L14.4277 13.2694L16.2488 13.5334C16.3028 13.5412 16.3536 13.5639 16.3953 13.5991C16.4371 13.6342 16.4682 13.6803 16.4852 13.7322C16.5021 13.7841 16.5042 13.8397 16.4912 13.8927C16.4781 13.9457 16.4505 13.994 16.4115 14.0322L15.0938 15.3124L15.4042 17.1199C15.4136 17.1738 15.4076 17.2292 15.387 17.2799C15.3664 17.3306 15.332 17.3745 15.2877 17.4066C15.2434 17.4387 15.191 17.4577 15.1364 17.4615C15.0819 17.4653 15.0273 17.4538 14.979 17.4282L13.35 16.5747Z" stroke="white" stroke-width="1.5" stroke-linecap="round" stroke-linejoin="round"/>
</g>
<defs>
<clipPath id="clip0_127_168">
<rect width="18" height="18" fill="white" transform="translate(0 0.961914)"/>
</clipPath>
</defs>
</svg>
