<svg xmlns="http://www.w3.org/2000/svg" xmlns:xlink="http://www.w3.org/1999/xlink" viewBox="0,0,256,256" width="50px" height="50px" fill-rule="nonzero"><g fill="#9180ff" fill-rule="nonzero" stroke="none" stroke-width="1" stroke-linecap="butt" stroke-linejoin="miter" stroke-miterlimit="10" stroke-dasharray="" stroke-dashoffset="0" font-family="none" font-weight="none" font-size="none" text-anchor="none" style="mix-blend-mode: normal"><g transform="scale(5.12,5.12)"><path d="M24.95117,1.00195c-0.34122,0.01624 -0.65055,0.20552 -0.82031,0.50195l-7.76953,13.59766l-15.54492,2.91602c-0.35673,0.06711 -0.64909,0.32224 -0.76387,0.6666c-0.11479,0.34436 -0.03398,0.72388 0.21114,0.9916l10.68945,11.66211l-1.94531,16.54492c-0.04247,0.36021 0.11342,0.71519 0.40739,0.92766c0.29397,0.21247 0.67993,0.24912 1.00863,0.09578l14.58984,-6.80859l15.58594,6.81836c0.34123,0.14886 0.7369,0.09586 1.02693,-0.13756c0.29002,-0.23341 0.42639,-0.6086 0.35393,-0.97377l-1.86328,-9.38867c0.43727,-0.22737 0.89502,-0.36872 1.88867,-1.38281c1.45247,-1.48062 1.96094,-3.79492 1.96094,-3.79492c0.09583,-0.36211 -0.01872,-0.74742 -0.29681,-0.99836c-0.27809,-0.25094 -0.6731,-0.32545 -1.0235,-0.19305c-10.13097,3.8278 -16.7221,4.29274 -20.7168,3.85156c-1.99735,-0.22059 -3.34819,-0.66647 -4.18359,-1.03906c-0.0076,-0.0034 -0.00217,-0.00246 -0.00977,-0.00586l10.9043,-9.08594c0.21551,-0.17995 0.34545,-0.4422 0.35808,-0.72267c0.01263,-0.28047 -0.09321,-0.55334 -0.29168,-0.75193c-0.82409,-0.82409 -1.99059,-1.13149 -3.37305,-1.42773c-1.38246,-0.29624 -2.9748,-0.48423 -4.5,-0.61133c-0.73017,-0.06085 -0.73149,-0.02541 -1.39648,-0.06055c2.01286,-0.61634 4.72773,-1.19336 8.5625,-1.19336c4.0475,0 6.51767,0.76935 7.99023,1.32617l-8.61523,6.89258c-0.26467,0.21161 -0.40418,0.54286 -0.37066,0.88006c0.03352,0.33721 0.23552,0.6345 0.53668,0.78986c0,0 0.94717,0.47683 2.68164,0.82227c1.73447,0.34544 4.33236,0.59919 7.86523,0.28516c0.24854,-0.02214 0.47982,-0.13639 0.64844,-0.32031l11,-12c0.24512,-0.26773 0.32593,-0.64725 0.21114,-0.9916c-0.11479,-0.34436 -0.40715,-0.59949 -0.76387,-0.6666l-15.54492,-2.91602l-7.76953,-13.59766c-0.18709,-0.32679 -0.54188,-0.5208 -0.91797,-0.50195zM25,4.01758l7.13086,12.47852c0.146,0.25493 0.39669,0.43278 0.68555,0.48633l14.23047,2.66797l-9.49805,10.36133c-3.13518,0.24257 -5.45608,0.03098 -6.93555,-0.26367c-0.36536,-0.07277 -0.24474,-0.07984 -0.50977,-0.15039l8.52148,-6.81641c0.26645,-0.21308 0.4059,-0.54728 0.36992,-0.88655c-0.03598,-0.33927 -0.24243,-0.63679 -0.54765,-0.78923c0,0 -4.22504,-2.10547 -10.44727,-2.10547c-4.61111,0 -7.97758,0.76977 -10.20703,1.55664c-2.22945,0.78687 -3.39258,1.64258 -3.39258,1.64258c-0.34484,0.25809 -0.4857,0.70797 -0.34962,1.11663c0.13607,0.40866 0.51851,0.6843 0.94923,0.68415c0,0 2.71642,0.00029 5.66602,0.24609c1.4748,0.1229 3.00746,0.30991 4.25,0.57617c0.62704,0.13437 0.7808,0.27982 1.19922,0.44727l-10.75586,8.96289c-0.22444,0.18714 -0.3558,0.46307 -0.35956,0.75527c-0.00376,0.2922 0.12047,0.57142 0.34003,0.76426c0,0 0.5647,0.4755 1.5918,0.93359c1.02709,0.45809 2.58665,0.95901 4.7793,1.20117c4.0481,0.44708 10.37932,-0.10566 19.44922,-3.25c-0.19165,0.35918 -0.35635,0.7662 -0.58203,0.99609c0,0.00065 0,0.0013 0,0.00195c-1.14996,1.17361 -1.92578,1.45703 -1.92578,1.45703c-0.44935,0.17762 -0.70746,0.65109 -0.61328,1.125l1.60742,8.09961l-14.24609,-6.23242c-0.26337,-0.11538 -0.56366,-0.11182 -0.82422,0.00977l-13.375,6.24219l1.79102,-15.21875c0.03413,-0.28896 -0.05928,-0.57845 -0.25586,-0.79297l-9.7832,-10.67383l14.23047,-2.66797c0.28885,-0.05355 0.53955,-0.2314 0.68555,-0.48633z"></path></g></g></svg>